<svg width="635" height="635" viewBox="0 0 635 635" fill="none" xmlns="http://www.w3.org/2000/svg">
<rect x="2.5" y="2.5" width="630" height="630" rx="315" fill="white" stroke="white" stroke-width="5"/>
<path d="M297.283 358.799C282.06 343.638 282.06 318.973 297.283 303.812C304.658 296.468 314.463 292.423 324.892 292.423C334.753 292.423 344.055 296.039 351.274 302.64C351.973 303.28 353.052 303.26 353.725 302.591L357.482 298.849C358.192 298.142 358.169 296.988 357.433 296.307C352.325 291.589 346.356 288.101 339.889 285.986C339.243 285.775 339.154 284.904 339.742 284.566L353.415 276.704C354.261 276.217 354.551 275.139 354.063 274.296L351.408 269.717C350.92 268.875 349.837 268.586 348.991 269.072L330.497 279.705C329.973 280.006 329.316 279.629 329.316 279.026V257.762C329.316 256.79 328.523 256 327.547 256H322.237C321.26 256 320.467 256.79 320.467 257.762V279.03C320.467 279.633 319.813 280.01 319.287 279.709L300.793 269.076C299.947 268.589 298.864 268.878 298.375 269.721L295.721 274.3C295.232 275.142 295.522 276.221 296.368 276.707L310.042 284.569C310.629 284.908 310.541 285.778 309.895 285.99C302.86 288.29 296.414 292.217 291.027 297.582C281.982 306.59 277 318.567 277 331.306C277 344.045 281.982 356.023 291.027 365.031C300.073 374.039 312.1 379 324.892 379C337.068 379 348.552 374.506 357.429 366.303C358.167 365.623 358.192 364.469 357.48 363.76L353.723 360.018C353.052 359.35 351.975 359.329 351.276 359.967C335.976 373.949 312.105 373.558 297.283 358.799Z" fill="#DD1A33"/>
<path d="M414.184 80.3487L383.854 63.1478C383.667 63.0507 383.459 63 383.249 63C383.038 63 382.83 63.0507 382.643 63.1478L352.313 80.3487C351.781 80.6632 351.587 81.3164 351.902 81.8487C352.027 82.0458 352.209 82.2001 352.424 82.2909C352.639 82.3817 352.877 82.4047 353.106 82.3567H354.251V85.6469C354.251 86.4936 354.93 87.171 355.778 87.171H356.626V87.6307C356.626 88.7194 357.498 89.5903 358.588 89.5903H359.016V118.597H358.563C357.473 118.597 356.601 119.468 356.601 120.557V120.992H353.331C352.483 120.992 351.805 121.67 351.805 122.516V128.25H414.668V122.516C414.668 121.67 413.99 120.992 413.142 120.992H409.823V120.557C409.823 119.468 408.951 118.597 407.861 118.597H407.401V89.5903H407.885C408.975 89.5903 409.847 88.7194 409.847 87.6307V87.171H410.768C411.616 87.171 412.294 86.4936 412.294 85.6469V82.3567H413.382C413.462 82.3724 413.543 82.3805 413.624 82.3809C414.012 82.3809 414.399 82.1874 414.593 81.8487C414.908 81.3164 414.738 80.639 414.181 80.3487H414.184ZM397.735 120.992H396.136V120.557C396.136 119.468 395.264 118.597 394.174 118.597H393.689V89.5903H394.174C395.264 89.5903 396.136 88.7194 396.136 87.6307V87.171H397.759V87.6307C397.759 88.7194 398.631 89.5903 399.721 89.5903H400.157V118.597H399.697C398.607 118.597 397.735 119.468 397.735 120.557V120.992ZM384.048 120.992H382.401V120.557C382.401 119.468 381.529 118.597 380.438 118.597H379.978V89.5903H380.438C381.529 89.5903 382.401 88.7194 382.401 87.6307V87.171H384.048V87.6307C384.048 88.7194 384.92 89.5903 386.01 89.5903H386.446V118.597H386.01C384.92 118.597 384.048 119.468 384.048 120.557V120.992ZM370.313 120.992H368.689V120.557C368.689 119.468 367.817 118.597 366.727 118.597H366.284V89.5903H366.751C367.842 89.5903 368.714 88.7194 368.714 87.6307V87.171H370.313V87.6307C370.313 88.7194 371.185 89.5903 372.275 89.5903H372.735V118.597H372.275C371.185 118.597 370.313 119.468 370.313 120.557V120.992ZM359.273 82.3325L383.249 68.8403L407.224 82.3325H359.273Z" fill="#DD1A33"/>
<path d="M351.75 73.4426C355.96 73.4426 359.998 75.1151 362.975 78.0923C365.952 81.0694 367.625 85.1073 367.625 89.3176C367.625 93.5279 365.952 97.5658 362.975 100.543C359.998 103.52 355.96 105.193 351.75 105.193C347.54 105.193 343.502 103.52 340.525 100.543C337.548 97.5658 335.875 93.5279 335.875 89.3176C335.875 85.1073 337.548 81.0694 340.525 78.0923C343.502 75.1151 347.54 73.4426 351.75 73.4426ZM351.75 115.63C360.952 115.63 369.23 117.496 375.17 120.466C381.17 123.466 384.5 127.426 384.5 131.505V138.943H319V131.505C319 127.426 322.33 123.466 328.33 120.466C334.27 117.496 342.548 115.63 351.75 115.63Z" fill="#DD1A33" stroke="white" stroke-width="2"/>
<path d="M156.312 186.562H163.625V193.875H156.312V186.562ZM130.719 150H167.281C167.549 150 167.814 150.059 168.056 150.173C168.299 150.287 168.514 150.452 168.685 150.658L177.826 161.627C178.254 162.139 178.25 162.398 178.25 162.731V168.281C178.25 171.528 176.839 174.449 174.594 176.457V206.672C174.594 207.157 174.401 207.622 174.058 207.965C173.715 208.307 173.25 208.5 172.766 208.5H149V184.734C149 184.25 148.807 183.785 148.465 183.442C148.122 183.099 147.657 182.906 147.172 182.906H132.547C132.062 182.906 131.597 183.099 131.254 183.442C130.911 183.785 130.719 184.25 130.719 184.734V208.5H125.234C124.75 208.5 124.285 208.307 123.942 207.965C123.599 207.622 123.406 207.157 123.406 206.672V176.457C121.161 174.446 119.75 171.528 119.75 168.281V162.797C119.75 162.369 119.9 161.955 120.174 161.627L129.315 150.658C129.486 150.452 129.701 150.287 129.944 150.173C130.186 150.059 130.451 150 130.719 150ZM123.406 164.625V168.281C123.406 170.221 124.177 172.081 125.548 173.452C126.919 174.823 128.779 175.594 130.719 175.594C132.658 175.594 134.518 174.823 135.889 173.452C137.261 172.081 138.031 170.221 138.031 168.281V164.625H123.406ZM141.688 164.625V168.281C141.688 170.221 142.458 172.081 143.829 173.452C145.201 174.823 147.061 175.594 149 175.594C150.939 175.594 152.799 174.823 154.171 173.452C155.542 172.081 156.312 170.221 156.312 168.281V164.625H141.688ZM159.969 164.625V168.281C159.969 170.221 160.739 172.081 162.111 173.452C163.482 174.823 165.342 175.594 167.281 175.594C169.221 175.594 171.081 174.823 172.452 173.452C173.823 172.081 174.594 170.221 174.594 168.281V164.625H159.969ZM131.574 153.656L125.483 160.969H138.543L140.978 153.656H131.574ZM155.603 160.969L153.168 153.656H144.832L142.397 160.969H155.603ZM159.457 160.969H172.521L166.426 153.656H157.022L159.457 160.969ZM152.656 184.734V195.703C152.656 196.188 152.849 196.653 153.192 196.996C153.535 197.339 154 197.531 154.484 197.531H165.453C165.938 197.531 166.403 197.339 166.746 196.996C167.089 196.653 167.281 196.188 167.281 195.703V184.734C167.281 184.25 167.089 183.785 166.746 183.442C166.403 183.099 165.938 182.906 165.453 182.906H154.484C154 182.906 153.535 183.099 153.192 183.442C152.849 183.785 152.656 184.25 152.656 184.734ZM145.344 208.5V186.562H134.375V208.5H145.344Z" fill="#DD1A33"/>
<path d="M119.75 151C123.96 151 127.998 152.673 130.975 155.65C133.952 158.627 135.625 162.665 135.625 166.875C135.625 171.085 133.952 175.123 130.975 178.1C127.998 181.078 123.96 182.75 119.75 182.75C115.54 182.75 111.502 181.078 108.525 178.1C105.548 175.123 103.875 171.085 103.875 166.875C103.875 162.665 105.548 158.627 108.525 155.65C111.502 152.673 115.54 151 119.75 151ZM119.75 193.188C128.952 193.188 137.23 195.053 143.17 198.023C149.17 201.023 152.5 204.983 152.5 209.063V216.5H87V209.063C87 204.983 90.3297 201.023 96.3296 198.023C102.27 195.053 110.548 193.188 119.75 193.188Z" fill="#DD1A33" stroke="white" stroke-width="2"/>
<path d="M164.597 427.625L173.341 439.25H179.17C182.406 439.25 185 441.837 185 445.062V453.781H179.17C179.17 456.094 178.249 458.311 176.609 459.946C174.969 461.581 172.745 462.5 170.426 462.5C168.107 462.5 165.883 461.581 164.243 459.946C162.603 458.311 161.682 456.094 161.682 453.781H144.193C144.193 456.094 143.272 458.311 141.632 459.946C139.992 461.581 137.768 462.5 135.449 462.5C133.13 462.5 130.906 461.581 129.266 459.946C127.626 458.311 126.705 456.094 126.705 453.781H120.875V445.062C120.875 441.837 123.469 439.25 126.705 439.25L135.449 427.625H164.597ZM148.565 431.984H137.635L132.126 439.25H148.565V431.984ZM152.938 431.984V439.25H167.919L162.411 431.984H152.938ZM135.449 449.422C134.289 449.422 133.177 449.881 132.357 450.699C131.537 451.516 131.077 452.625 131.077 453.781C131.077 454.937 131.537 456.046 132.357 456.864C133.177 457.681 134.289 458.141 135.449 458.141C136.608 458.141 137.721 457.681 138.54 456.864C139.36 456.046 139.821 454.937 139.821 453.781C139.821 452.625 139.36 451.516 138.54 450.699C137.721 449.881 136.608 449.422 135.449 449.422ZM170.426 449.422C169.267 449.422 168.154 449.881 167.335 450.699C166.515 451.516 166.054 452.625 166.054 453.781C166.054 454.937 166.515 456.046 167.335 456.864C168.154 457.681 169.267 458.141 170.426 458.141C171.586 458.141 172.698 457.681 173.518 456.864C174.338 456.046 174.798 454.937 174.798 453.781C174.798 452.625 174.338 451.516 173.518 450.699C172.698 449.881 171.586 449.422 170.426 449.422Z" fill="#DD1A33"/>
<path d="M119.75 405C123.96 405 127.998 406.673 130.975 409.65C133.952 412.627 135.625 416.665 135.625 420.875C135.625 425.085 133.952 429.123 130.975 432.1C127.998 435.078 123.96 436.75 119.75 436.75C115.54 436.75 111.502 435.078 108.525 432.1C105.548 429.123 103.875 425.085 103.875 420.875C103.875 416.665 105.548 412.627 108.525 409.65C111.502 406.673 115.54 405 119.75 405ZM119.75 447.188C128.952 447.188 137.23 449.053 143.17 452.023C149.17 455.023 152.5 458.983 152.5 463.063V470.5H87V463.063C87 458.983 90.3297 455.023 96.3296 452.023C102.27 449.053 110.548 447.188 119.75 447.188Z" fill="#DD1A33" stroke="white" stroke-width="2"/>
<path d="M480.155 502.375C479.972 502.372 479.793 502.434 479.65 502.55C479.507 502.667 479.41 502.831 479.375 503.013L478.804 507.022C477.904 507.417 477.033 507.903 476.252 508.45L472.53 506.931C472.199 506.931 471.809 506.931 471.599 507.326L468.597 512.581C468.417 512.915 468.477 513.31 468.777 513.553L471.959 516.044C471.84 517.053 471.84 518.072 471.959 519.081L468.777 521.572C468.642 521.689 468.551 521.849 468.518 522.026C468.485 522.203 468.513 522.385 468.597 522.544L471.599 527.799C471.779 528.194 472.169 528.194 472.53 528.194L476.252 526.675C477.033 527.222 477.874 527.738 478.804 528.103L479.375 532.112C479.435 532.477 479.735 532.75 480.155 532.75H486.159C486.49 532.75 486.82 532.477 486.88 532.112L487.45 528.103C488.351 527.708 489.162 527.222 489.972 526.675L493.665 528.194C494.055 528.194 494.445 528.194 494.656 527.799L497.658 522.544C497.742 522.385 497.769 522.203 497.737 522.026C497.704 521.849 497.612 521.689 497.478 521.572L494.265 519.081C494.325 518.565 494.385 518.079 494.385 517.562C494.385 517.046 494.355 516.56 494.265 516.044L497.448 513.553C497.582 513.436 497.674 513.276 497.707 513.099C497.739 512.922 497.712 512.74 497.628 512.581L494.626 507.326C494.445 506.931 494.055 506.931 493.665 506.931L489.972 508.45C489.162 507.903 488.351 507.387 487.42 507.022L486.85 503.013C486.831 502.84 486.751 502.68 486.623 502.562C486.496 502.445 486.331 502.378 486.159 502.375H480.155ZM483.157 513.006C485.649 513.006 487.661 515.041 487.661 517.562C487.661 520.084 485.649 522.119 483.157 522.119C480.635 522.119 478.654 520.084 478.654 517.562C478.654 515.041 480.666 513.006 483.157 513.006ZM480.155 496.543V472H438.125V526.675H456.138V516.044H462.232C462.923 506.02 470.458 497.94 480.155 496.543ZM450.134 520.6H444.129V514.525H450.134V520.6ZM450.134 508.45H444.129V502.375H450.134V508.45ZM450.134 496.3H444.129V490.225H450.134V496.3ZM450.134 484.15H444.129V478.075H450.134V484.15ZM468.147 478.075H474.151V484.15H468.147V478.075ZM468.147 490.225H474.151V496.3H468.147V490.225ZM462.142 508.45H456.138V502.375H462.142V508.45ZM462.142 496.3H456.138V490.225H462.142V496.3ZM456.138 484.15V478.075H462.142V484.15H456.138Z" fill="#DD1A33"/>
<path d="M434.75 473C438.96 473 442.998 474.673 445.975 477.65C448.952 480.627 450.625 484.665 450.625 488.875C450.625 493.085 448.952 497.123 445.975 500.1C442.998 503.078 438.96 504.75 434.75 504.75C430.54 504.75 426.502 503.078 423.525 500.1C420.548 497.123 418.875 493.085 418.875 488.875C418.875 484.665 420.548 480.627 423.525 477.65C426.502 474.673 430.54 473 434.75 473ZM434.75 515.188C443.952 515.188 452.23 517.053 458.17 520.023C464.17 523.023 467.5 526.983 467.5 531.063V538.5H402V531.063C402 526.983 405.33 523.023 411.33 520.023C417.27 517.053 425.548 515.188 434.75 515.188Z" fill="#DD1A33" stroke="white" stroke-width="2"/>
<path d="M524.25 262.525H528.663V259.046C528.663 257.37 529.941 256 531.499 256H545.693C547.246 256 548.524 257.37 548.524 259.046V262.525H575.07L581.625 275.575H577.074V284.275H577.811L581.487 288.625L577.811 292.975H577.005V295.311C577.005 295.901 576.543 296.379 575.97 296.379C574.259 296.379 572.866 297.819 572.866 299.588C572.866 301.357 574.259 302.797 575.97 302.797C577.682 302.797 579.074 301.357 579.074 299.588C579.074 298.998 579.537 298.52 580.109 298.52C580.682 298.52 581.144 298.998 581.144 299.588C581.142 302.54 578.822 304.938 575.97 304.938C573.119 304.938 570.798 302.54 570.798 299.589C570.798 297.006 572.577 294.844 574.935 294.35V292.975H574.131L570.453 288.625L574.131 284.275H574.867V275.575H548.524V283.404C548.524 284.848 547.574 286.059 546.317 286.37V321.25H543.421V314.725L533.767 317.987L543.421 321.25H530.87V286.368C529.612 286.058 528.663 284.848 528.663 283.404V275.575H524.25V272.312H526.543L524.25 268.022V262.525ZM576.502 272.312L573.925 267.094L571.138 272.312H576.502ZM571.623 265.787H567.041L569.331 270.078L571.623 265.787ZM567.525 272.312L565.233 268.022L562.941 272.312H567.525ZM563.426 265.787H558.844L561.136 270.078L563.426 265.787ZM559.327 272.312L557.037 268.022L554.746 272.312H559.327ZM555.229 265.787H550.647L552.938 270.078L555.229 265.787ZM548.524 272.312H551.131L548.841 268.022L548.524 268.615V272.312ZM533.767 314.725L543.421 311.462L533.767 308.2V314.725ZM543.421 308.2V301.675L533.767 304.94L543.421 308.2ZM533.767 301.675L543.421 298.412L533.767 295.15V301.675ZM543.421 295.15V288.627L533.767 291.888L543.421 295.15ZM533.767 288.627L540.205 286.45H533.767V288.627ZM532.111 270.407C532.111 271.454 532.857 272.312 533.767 272.312H543.699C544.608 272.312 545.352 271.454 545.352 270.407V261.174C545.352 260.121 544.608 259.262 543.699 259.262H533.767C532.857 259.262 532.111 260.121 532.111 261.174V270.407ZM528.349 270.078L528.663 269.488V265.787H526.058L528.349 270.078Z" fill="#DD1A33"/>
<path d="M519.75 257C523.96 257 527.998 258.673 530.975 261.65C533.952 264.627 535.625 268.665 535.625 272.875C535.625 277.085 533.952 281.123 530.975 284.1C527.998 287.078 523.96 288.75 519.75 288.75C515.54 288.75 511.502 287.078 508.525 284.1C505.548 281.123 503.875 277.085 503.875 272.875C503.875 268.665 505.548 264.627 508.525 261.65C511.502 258.673 515.54 257 519.75 257ZM519.75 299.188C528.952 299.188 537.23 301.053 543.17 304.023C549.17 307.023 552.5 310.983 552.5 315.063V322.5H487V315.063C487 310.983 490.33 307.023 496.33 304.023C502.27 301.053 510.548 299.188 519.75 299.188Z" fill="#DD1A33" stroke="white" stroke-width="2"/>
<path d="M327.86 234.386C327.146 235.568 327.526 237.105 328.708 237.818C329.889 238.532 331.426 238.153 332.14 236.971L327.86 234.386ZM345.768 166.233C344.791 165.256 343.208 165.256 342.232 166.233L326.322 182.143C325.346 183.119 325.346 184.702 326.322 185.678C327.299 186.655 328.882 186.655 329.858 185.678L344 171.536L358.142 185.678C359.119 186.654 360.701 186.654 361.678 185.678C362.654 184.701 362.654 183.119 361.678 182.142L345.768 166.233ZM332.14 236.971C346.546 213.119 346.5 186.436 346.5 168L341.5 168C341.5 186.564 341.453 211.881 327.86 234.386L332.14 236.971Z" fill="#DD1A33"/>
<path d="M401 314.5C399.619 314.5 398.5 315.619 398.5 317C398.5 318.381 399.619 319.5 401 319.5L401 314.5ZM456.768 318.768C457.744 317.792 457.744 316.209 456.768 315.232L440.858 299.322C439.882 298.346 438.299 298.346 437.322 299.322C436.346 300.299 436.346 301.882 437.322 302.858L451.464 317L437.322 331.142C436.346 332.118 436.346 333.701 437.322 334.678C438.299 335.654 439.882 335.654 440.858 334.678L456.768 318.768ZM401 319.5L455 319.5L455 314.5L401 314.5L401 319.5Z" fill="#DD1A33"/>
<path d="M355.365 393.818C355.817 392.513 355.125 391.089 353.821 390.637C352.516 390.185 351.092 390.877 350.64 392.181L355.365 393.818ZM389.214 466.991C390.589 466.873 391.609 465.662 391.491 464.286L389.569 441.869C389.451 440.493 388.241 439.473 386.865 439.591C385.489 439.709 384.47 440.92 384.588 442.296L386.296 462.223L366.369 463.931C364.993 464.049 363.973 465.259 364.091 466.635C364.209 468.011 365.42 469.03 366.796 468.912L389.214 466.991ZM353.002 392.999C350.64 392.181 350.64 392.182 350.639 392.184C350.639 392.184 350.639 392.185 350.638 392.186C350.638 392.188 350.637 392.19 350.636 392.193C350.635 392.197 350.633 392.203 350.631 392.209C350.626 392.221 350.621 392.237 350.615 392.256C350.603 392.293 350.586 392.344 350.567 392.407C350.528 392.532 350.475 392.708 350.413 392.932C350.29 393.38 350.129 394.022 349.965 394.845C349.635 396.491 349.289 398.862 349.19 401.854C348.992 407.846 349.786 416.308 353.667 426.397L358.333 424.602C354.714 415.192 354.009 407.403 354.187 402.02C354.276 399.325 354.587 397.227 354.868 395.826C355.008 395.126 355.14 394.599 355.234 394.26C355.28 394.091 355.317 393.968 355.341 393.894C355.352 393.857 355.36 393.832 355.364 393.819C355.367 393.812 355.368 393.809 355.368 393.809C355.368 393.809 355.368 393.809 355.367 393.811C355.367 393.812 355.367 393.813 355.366 393.814C355.366 393.814 355.366 393.815 355.366 393.815C355.365 393.817 355.365 393.818 353.002 392.999ZM353.667 426.397C361.449 446.633 378.08 458.573 387.39 466.412L390.61 462.588C380.92 454.427 365.551 443.367 358.333 424.602L353.667 426.397Z" fill="#DD1A33"/>
<path d="M253 372C254.381 372 255.5 370.881 255.5 369.5C255.5 368.119 254.381 367 253 367L253 372ZM190.514 406.269C190.663 407.642 191.897 408.634 193.269 408.485L215.638 406.06C217.011 405.911 218.003 404.678 217.854 403.305C217.705 401.932 216.472 400.94 215.099 401.089L195.216 403.245L193.06 383.362C192.911 381.989 191.678 380.997 190.305 381.146C188.932 381.294 187.94 382.528 188.089 383.901L190.514 406.269ZM253 367C230.886 367 209.745 381.192 191.052 404.433L194.948 407.567C213.254 384.808 233.114 372 253 372L253 367Z" fill="#DD1A33"/>
<path d="M259.682 274.48C261.051 274.657 262.304 273.69 262.481 272.321C262.658 270.951 261.691 269.698 260.322 269.521L259.682 274.48ZM181.586 225.501C180.206 225.454 179.049 226.534 179.002 227.914L178.226 250.4C178.179 251.78 179.259 252.937 180.638 252.985C182.018 253.033 183.176 251.953 183.223 250.573L183.912 230.585L203.901 231.274C205.28 231.321 206.438 230.241 206.485 228.862C206.533 227.482 205.453 226.324 204.073 226.277L181.586 225.501ZM260.322 269.521C230.078 265.618 204.076 248.524 183.328 226.294L179.672 229.706C200.924 252.476 227.922 270.382 259.682 274.48L260.322 269.521Z" fill="#DD1A33"/>
</svg>
