<svg width="157" height="157" viewBox="0 0 157 157" fill="none" xmlns="http://www.w3.org/2000/svg">
<path d="M138.951 7.70475C139.226 7.42858 139.43 7.09038 139.547 6.71863C139.664 6.34688 139.69 5.95246 139.623 5.56858C139.556 5.1847 139.397 4.82259 139.161 4.51274C138.925 4.20289 138.617 3.95436 138.265 3.78809C132.828 1.22062 126.73 0.399259 120.808 1.43682C114.885 2.47439 109.43 5.31999 105.19 9.5828C96.9282 17.8978 94.0431 30.9566 97.8965 41.8746L41.7544 98.0166C38.6355 96.9171 35.3501 96.364 32.0431 96.3818C23.7038 96.3818 15.6174 99.7 9.86166 105.49C5.63662 109.697 2.78093 115.082 1.66878 120.939C0.556636 126.797 1.23991 132.854 3.62907 138.317C3.78567 138.682 4.02991 139.004 4.34021 139.253C4.65051 139.502 5.01734 139.671 5.40829 139.744C5.79924 139.818 6.20229 139.794 6.58186 139.675C6.96143 139.556 7.30583 139.345 7.58465 139.061L24.5698 121.988C25.6889 120.86 27.4939 120.709 28.4281 121.658L35.7603 129.33C36.8258 130.406 36.7771 132.065 35.6532 133.198L18.7313 150.227C18.4563 150.503 18.2516 150.841 18.1346 151.212C18.0176 151.584 17.9916 151.978 18.0588 152.361C18.1261 152.745 18.2846 153.107 18.5211 153.416C18.7575 153.725 19.0649 153.973 19.4173 154.139C23.3547 156.018 27.6612 156.995 32.0236 157C39.6721 157 46.9361 153.925 52.4924 148.34C60.7539 140.029 63.6391 126.971 59.7808 116.053L115.923 59.9058C119.044 61.0049 122.33 61.5579 125.639 61.5406C133.978 61.5406 142.065 58.2223 147.82 52.4325C152.046 48.2256 154.901 42.8405 156.013 36.9829C157.125 31.1252 156.442 25.0682 154.053 19.6056C153.896 19.2399 153.652 18.9184 153.342 18.6694C153.032 18.4205 152.665 18.2518 152.274 18.1782C151.883 18.1046 151.48 18.1284 151.1 18.2476C150.721 18.3667 150.376 18.5774 150.097 18.8611L133.112 35.9339C132.587 36.4412 131.884 36.7207 131.154 36.7116C130.424 36.7025 129.727 36.4055 129.215 35.8852L121.922 28.592C121.662 28.3422 121.455 28.0425 121.313 27.7107C121.171 27.379 121.098 27.0221 121.098 26.6614C121.097 26.3008 121.169 25.9437 121.31 25.6116C121.451 25.2795 121.657 24.9793 121.917 24.7288L138.951 7.70475V7.70475ZM118.477 32.0318L125.77 39.3251C128.685 42.2541 133.677 42.2687 136.562 39.3689L150.818 25.0451C151.947 29.2536 151.946 33.6855 150.815 37.8936C149.684 42.1016 147.463 45.9368 144.376 49.0121C139.525 53.8921 132.704 56.6849 125.644 56.6849C122.321 56.6849 119.173 56.0621 116.288 54.836C115.842 54.6461 115.349 54.5937 114.873 54.6856C114.397 54.7775 113.96 55.0095 113.617 55.3518L55.2316 113.737C54.8899 114.078 54.6579 114.514 54.5651 114.988C54.4724 115.462 54.5232 115.953 54.711 116.398C58.618 125.691 56.2388 137.684 49.0526 144.914C45.9562 148.055 42.0577 150.286 37.7813 151.366C33.5049 152.445 29.0144 152.33 24.7985 151.035L39.1077 136.633C42.1291 133.592 42.1777 128.878 39.2488 125.939L31.9214 118.266C29.0946 115.42 24.0687 115.595 21.13 118.568L6.8743 132.892C5.74509 128.683 5.74604 124.251 6.87707 120.043C8.00809 115.835 10.2292 112 13.3161 108.925C18.1669 104.045 24.9882 101.252 32.048 101.252C35.371 101.252 38.5189 101.875 41.4041 103.101C41.8498 103.292 42.3427 103.345 42.8189 103.253C43.2951 103.161 43.7328 102.929 44.0753 102.585L102.46 44.2002C102.802 43.8587 103.034 43.4231 103.127 42.949C103.219 42.4749 103.169 41.9839 102.981 41.5388C99.0739 32.2459 101.453 20.2478 108.639 13.0178C111.735 9.88007 115.631 7.65058 119.904 6.5715C124.177 5.49242 128.665 5.60503 132.879 6.89709L118.477 21.3036C117.765 22.0037 117.199 22.8385 116.813 23.7595C116.427 24.6804 116.228 25.6691 116.228 26.6677C116.228 27.6663 116.427 28.655 116.813 29.5759C117.199 30.4969 117.765 31.3318 118.477 32.0318V32.0318Z" fill="white"/>
<path d="M90.645 101.209L90.6354 101.2L90.6253 101.191C90.0649 100.689 89.3336 100.422 88.5821 100.444C87.8306 100.466 87.116 100.775 86.5855 101.308C86.0551 101.84 85.749 102.556 85.7305 103.308C85.7119 104.059 85.9822 104.789 86.4857 105.348L86.4946 105.358L86.504 105.367L135.298 154.01C136.851 155.568 138.915 156.429 141.111 156.429C143.309 156.429 145.373 155.567 146.954 153.976L146.961 153.969L153.903 146.715C153.905 146.713 153.907 146.712 153.908 146.71C154.664 145.963 155.264 145.074 155.674 144.093C156.084 143.111 156.295 142.056 156.295 140.991C156.294 139.926 156.082 138.872 155.671 137.89C155.26 136.909 154.658 136.019 153.9 135.272C153.9 135.271 153.899 135.271 153.898 135.27L105.247 86.6183L105.247 86.6183L105.24 86.6123C104.687 86.078 103.947 85.7824 103.178 85.7891C102.409 85.7958 101.673 86.1042 101.129 86.648C100.586 87.1917 100.277 87.9273 100.27 88.6962C100.264 89.4652 100.559 90.206 101.094 90.7591L101.094 90.7592L101.1 90.7653L149.748 139.414C150.664 140.333 150.673 141.643 149.713 142.611L149.707 142.617L142.762 149.874C142.315 150.3 141.721 150.537 141.103 150.536C140.483 150.534 139.888 150.292 139.443 149.861C139.442 149.86 139.441 149.859 139.44 149.859L90.645 101.209ZM15.2365 1.47361L15.2364 1.47356C14.6865 0.923758 13.9407 0.614899 13.163 0.614899C12.3854 0.614899 11.6396 0.923758 11.0896 1.47356L11.0895 1.47361L1.35871 11.2044L1.35866 11.2045C0.808859 11.7545 0.5 12.5003 0.5 13.2779C0.5 14.0556 0.808859 14.8014 1.35866 15.3513L1.35871 15.3514L15.955 29.9476L15.9559 29.9486C16.5062 30.4959 17.2505 30.8037 18.0267 30.8048C18.8029 30.8059 19.5481 30.5002 20.1 29.9545L20.1022 29.9522L22.8917 27.1584L59.7357 64.0024C60.0051 64.2812 60.3272 64.5038 60.6833 64.6573C61.0408 64.8115 61.4255 64.893 61.8149 64.8969C62.2043 64.9008 62.5906 64.8271 62.9512 64.6802C63.3118 64.5332 63.6395 64.3159 63.9153 64.041C64.191 63.766 64.4092 63.4389 64.5572 63.0787C64.7052 62.7185 64.7799 62.3325 64.7771 61.9431C64.7743 61.5537 64.6939 61.1687 64.5408 60.8107C64.3882 60.454 64.1663 60.1312 63.888 59.8608L27.0384 23.0112L29.8269 20.2226C29.8272 20.2224 29.8274 20.2221 29.8277 20.2219C30.1008 19.95 30.3177 19.6269 30.4659 19.2712C30.6143 18.9151 30.6909 18.5332 30.6915 18.1475C30.692 17.7617 30.6164 17.3797 30.4691 17.0231C30.3217 16.6666 30.1055 16.3427 29.8328 16.0699L29.4808 16.4218L29.8327 16.0698L15.2365 1.47361ZM18.026 23.7296L7.57671 13.2803L13.1606 7.69647L23.6099 18.1458L18.026 23.7296Z" fill="white" stroke="white"/>
</svg>
