<svg
  width="129"
  height="168"
  viewBox="0 0 129 168"
  fill="none"
  xmlns="http://www.w3.org/2000/svg"
>
    <path
      d="M114.824 45.2996H109.686C100.649 31.2178 81.6883 27.1697 67.5123 36.1463C67.1576 36.3219 66.9808 36.4987 66.6261 36.6743C69.6383 19.9528 58.4743 4.11078 41.8188 1.11846C24.9851 -1.8737 9.03686 9.21596 6.02447 25.7605C4.78347 32.6252 6.02447 39.8423 9.39158 46.002C3.72056 47.9383 0 53.2191 0 59.0277V153.726C0 161.471 6.20262 167.631 13.9981 167.631H115.002C122.799 167.631 129 161.469 129 153.726V59.2069C128.823 51.4617 122.621 45.3008 114.825 45.3008L114.824 45.2996ZM83.9909 36.851C93.0278 36.851 101.356 41.6038 105.786 49.349C108.09 53.2214 109.153 57.4465 109.153 61.8469C109.153 64.6635 108.622 67.4802 107.736 70.1198H101.711C105.964 61.3189 102.952 50.9341 94.8003 45.4778C88.2442 41.2531 79.7377 41.2531 73.1819 45.4778C65.0301 50.7587 62.018 61.3189 66.2711 70.1198H60.2467C59.3604 67.4801 58.8289 64.6636 58.8289 61.8469C58.6509 48.1162 69.9928 36.8513 83.9912 36.8513L83.9909 36.851ZM95.6864 69.4145C95.5097 69.7669 95.3317 69.9425 94.9782 70.2949H72.827C70.8777 67.8307 69.9915 65.014 69.9915 62.022C69.9915 57.2691 72.2954 53.0453 76.1941 50.4044C80.9788 47.4122 87.0033 47.4122 91.6101 50.4044C98.1675 54.4525 99.9385 63.0778 95.6867 69.4144L95.6864 69.4145ZM36.3246 6.22373C50.3227 6.22373 61.4869 17.4889 61.4869 31.2184C61.4869 45.1233 50.1461 56.2131 36.3246 56.2131C22.3264 56.2131 11.1622 44.9479 11.1622 31.2184C10.9855 17.4889 22.3261 6.22373 36.3246 6.22373ZM5.49154 59.2054C5.49154 55.1573 8.50377 51.6372 12.757 50.9325C22.858 63.0781 40.7546 65.5421 53.8673 56.5658C53.5126 58.3264 53.3358 60.0858 53.3358 61.8466C53.3358 64.6632 53.6906 67.4799 54.5768 70.1195L13.8209 70.1183C9.21406 70.1183 5.49255 66.4213 5.49255 61.8454L5.49154 59.2054ZM41.8174 123.276C40.2229 123.276 38.982 122.044 38.982 120.46C38.982 118.876 40.223 117.643 41.8174 117.643C43.412 117.643 44.6529 118.876 44.6529 120.46C44.6529 122.044 43.4132 123.276 41.8174 123.276ZM123.152 120.46H75.4854C70.8785 120.46 67.157 116.763 67.157 112.187C67.157 107.611 70.8788 103.914 75.4854 103.914H123.152V120.46ZM123.152 98.105H99.3187H75.4854C67.6883 98.105 61.4872 104.266 61.4872 112.01C61.4872 119.755 67.6898 125.915 75.4854 125.915H123.152V153.726C123.152 158.302 119.43 161.999 114.824 161.999L58.6514 162V149.502L68.043 142.462H73.1824C74.7769 146.862 79.5616 149.151 83.9916 147.566C88.4216 145.982 90.7255 141.229 89.1297 136.828C87.5352 132.428 82.7505 130.139 78.3206 131.725C75.8398 132.605 74.0674 134.364 73.1824 136.828H66.9798C66.4483 136.828 65.7388 137.004 65.3853 137.356L54.2214 145.629C53.5131 146.157 53.1584 147.038 53.1584 147.918V161.823H44.83V128.203C49.26 126.619 51.5639 121.867 49.9682 117.466C48.3736 113.066 43.589 110.777 39.159 112.362C34.729 113.946 32.4251 118.699 34.0208 123.099C34.9071 125.563 36.6783 127.324 39.159 128.203V162.175H30.655V139.997C30.655 139.293 30.3002 138.588 29.7687 138.061L22.1498 130.492V117.291C26.5798 115.707 28.8837 110.954 27.2879 106.554C25.6934 102.153 20.9088 99.8647 16.4788 101.45C12.0488 103.034 9.74487 107.787 11.3406 112.187C12.2269 114.651 13.9981 116.412 16.4788 117.291V131.725C16.4788 132.429 16.8335 133.133 17.365 133.661L24.984 141.23V162.351H13.8201C9.21321 162.351 5.4917 158.654 5.4917 154.079V72.9339C7.97243 74.6946 10.808 75.7505 13.8201 75.7505H114.824C117.836 75.7505 120.848 74.6946 123.152 72.9339L123.152 98.105ZM78.3206 139.997C78.3206 138.414 79.5615 137.181 81.156 137.181C82.7505 137.181 83.9915 138.414 83.9915 139.997C83.9915 141.581 82.7505 142.814 81.156 142.814C79.5615 142.814 78.3206 141.406 78.3206 139.997ZM19.4903 112.011C17.8958 112.011 16.6548 110.778 16.6548 109.194C16.6548 107.61 17.8958 106.378 19.4903 106.378C21.0848 106.378 22.3258 107.61 22.3258 109.194C22.3258 110.778 20.908 112.011 19.4903 112.011ZM123.152 62.0214C123.152 66.5976 119.43 70.2943 114.824 70.2943H113.583C115.532 63.9576 115.177 56.9172 112.696 50.7562H114.822C119.429 50.7562 123.151 54.4532 123.151 59.0291L123.152 62.0214Z"
      fill="white"
    />
    <path
      d="M36.5 50.6307C47.2162 50.6307 56 41.847 56 31.1307C56 20.4145 47.2162 11.6307 36.5 11.6307C25.7838 11.6307 17 20.4145 17 31.1307C17 42.0223 25.7838 50.6307 36.5 50.6307ZM36.5 17.2524C44.23 17.2524 50.3778 23.4016 50.3778 31.1301C50.3778 38.8602 44.2285 45.0079 36.5 45.0079C28.77 45.0079 22.6222 38.8586 22.6222 31.1301C22.6222 23.5767 28.7703 17.2524 36.5 17.2524Z"
      fill="white"
    />
  </svg>
