<svg width="178" height="185" viewBox="0 0 178 185" fill="none" xmlns="http://www.w3.org/2000/svg">
<path d="M173.723 102.745C169.035 98.321 162.036 97.757 156.709 101.371L118.905 126.977C119.553 120.756 116.019 114.671 110.072 112.275L94.83 106.132C80.6547 100.419 65.0621 100.463 50.9248 106.255L32.95 113.614C29.9435 111.267 26.1964 109.929 22.1992 109.929C19.4817 109.929 16.8644 110.547 14.4197 111.766L4.87349 116.538C2.7691 117.587 1.2001 119.395 0.455754 121.626C-0.287411 123.854 -0.117276 126.239 0.933686 128.344L26.8456 180.14C28.3482 183.139 31.3659 185 34.7215 185C36.0715 185 37.4277 184.682 38.655 184.072L48.2025 179.3C52.3726 177.218 55.4804 173.639 56.9527 169.224C57.5708 167.37 57.8511 165.462 57.8348 163.562L99.4979 164.469C99.7819 164.475 100.066 164.478 100.35 164.478C108.082 164.478 115.539 162.191 121.964 157.839L172.012 123.937C175.454 121.605 177.62 117.894 177.955 113.751C178.288 109.608 176.746 105.596 173.724 102.745L173.723 102.745ZM48.4455 166.39C47.7311 168.535 46.221 170.271 44.193 171.284L34.7932 175.984L9.02987 124.485L18.4271 119.788C19.6144 119.195 20.8831 118.895 22.1992 118.895C25.4408 118.895 28.3535 120.688 29.7974 123.574L47.9801 159.925C48.996 161.949 49.1599 164.245 48.4455 166.39L48.4455 166.39ZM169.015 113.028C168.9 114.446 168.158 115.716 166.98 116.516L116.932 150.417C111.82 153.88 105.872 155.655 99.6917 155.506L55.3158 154.541L38.5433 121.011L54.3248 114.55C66.2882 109.649 79.4825 109.613 91.4783 114.446L106.721 120.589C109.168 121.574 110.52 124.244 109.867 126.804C109.14 129.652 106.532 131.514 103.652 131.33C103.571 131.318 103.489 131.317 103.409 131.303L75.3852 126.529C72.943 126.112 70.6273 127.754 70.2119 130.194C69.7953 132.633 71.4368 134.949 73.8776 135.364L74.8998 135.538L74.856 135.812C74.8572 135.812 90.8816 138.371 101.622 140.111C101.833 140.145 102.04 140.163 102.249 140.188C109.2 141.219 116.211 139.631 122.033 135.687L161.743 108.79C163.566 107.554 165.962 107.747 167.566 109.263C168.603 110.238 169.131 111.611 169.017 113.028L169.015 113.028Z" fill="white"/>
<path d="M84.1443 83L82.4925 69.72C81.5978 69.3742 80.7555 68.9592 79.9654 68.475C79.1725 67.9908 78.3976 67.4721 77.6406 66.9188L65.3557 72.1063L54 52.3938L64.6331 44.3013C64.5643 43.8171 64.5299 43.3495 64.5299 42.8986V40.0973C64.5299 39.6491 64.5643 39.1829 64.6331 38.6988L54 30.6063L65.3557 10.8938L77.6406 16.0813C78.3976 15.5279 79.1891 15.0092 80.0149 14.525C80.8408 14.0408 81.6667 13.6258 82.4925 13.28L84.1443 0H106.856L108.507 13.28C109.402 13.6258 110.246 14.0408 111.039 14.525C111.829 15.0092 112.602 15.5279 113.359 16.0813L125.644 10.8938L137 30.6063L126.367 38.6988C126.436 39.1829 126.47 39.6491 126.47 40.0973V42.8986C126.47 43.3495 126.401 43.8171 126.264 44.3013L136.897 52.3938L125.541 72.1063L113.359 66.9188C112.602 67.4721 111.811 67.9908 110.985 68.475C110.159 68.9592 109.333 69.3742 108.507 69.72L106.856 83H84.1443ZM95.7065 56.025C99.6982 56.025 103.105 54.6071 105.927 51.7713C108.748 48.9354 110.159 45.5117 110.159 41.5C110.159 37.4883 108.748 34.0646 105.927 31.2287C103.105 28.3929 99.6982 26.975 95.7065 26.975C91.6459 26.975 88.2213 28.3929 85.4326 31.2287C82.6467 34.0646 81.2537 37.4883 81.2537 41.5C81.2537 45.5117 82.6467 48.9354 85.4326 51.7713C88.2213 54.6071 91.6459 56.025 95.7065 56.025ZM95.7065 47.725C93.9859 47.725 92.5241 47.1191 91.3211 45.9073C90.1153 44.6983 89.5124 43.2292 89.5124 41.5C89.5124 39.7708 90.1153 38.3017 91.3211 37.0927C92.5241 35.8809 93.9859 35.275 95.7065 35.275C97.427 35.275 98.8902 35.8809 100.096 37.0927C101.299 38.3017 101.901 39.7708 101.901 41.5C101.901 43.2292 101.299 44.6983 100.096 45.9073C98.8902 47.1191 97.427 47.725 95.7065 47.725ZM91.3707 74.7H99.5261L100.971 63.7025C103.105 63.1492 105.084 62.3358 106.909 61.2623C108.732 60.1916 110.4 58.8954 111.914 57.3738L122.134 61.6275L126.16 54.5725L117.282 47.8287C117.626 46.8604 117.867 45.8395 118.005 44.766C118.143 43.6953 118.211 42.6067 118.211 41.5C118.211 40.3933 118.143 39.3033 118.005 38.2298C117.867 37.1591 117.626 36.1396 117.282 35.1713L126.16 28.4275L122.134 21.3725L111.914 25.73C110.4 24.1392 108.732 22.807 106.909 21.7336C105.084 20.6629 103.105 19.8508 100.971 19.2975L99.6294 8.3H91.4739L90.0286 19.2975C87.8951 19.8508 85.9172 20.6629 84.0947 21.7336C82.2696 22.807 80.5999 24.1046 79.0858 25.6263L68.8657 21.3725L64.8396 28.4275L73.7177 35.0675C73.3735 36.105 73.1327 37.1425 72.995 38.18C72.8574 39.2175 72.7886 40.3242 72.7886 41.5C72.7886 42.6067 72.8574 43.6787 72.995 44.7162C73.1327 45.7537 73.3735 46.7912 73.7177 47.8287L64.8396 54.5725L68.8657 61.6275L79.0858 57.27C80.5999 58.8608 82.2696 60.1916 84.0947 61.2623C85.9172 62.3358 87.8951 63.1492 90.0286 63.7025L91.3707 74.7Z" fill="white"/>
</svg>
